<svg width="81" height="72" viewBox="0 0 81 72" fill="none" xmlns="http://www.w3.org/2000/svg">
<path d="M17.52 36C17.52 35.337 17.7834 34.7011 18.2522 34.2322C18.7211 33.7634 19.357 33.5 20.02 33.5H25.02V28.5C25.02 27.837 25.2834 27.2011 25.7522 26.7322C26.2211 26.2634 26.857 26 27.52 26C28.183 26 28.8189 26.2634 29.2878 26.7322C29.7566 27.2011 30.02 27.837 30.02 28.5V33.5H35.02C35.683 33.5 36.3189 33.7634 36.7878 34.2322C37.2566 34.7011 37.52 35.337 37.52 36C37.52 36.663 37.2566 37.2989 36.7878 37.7678C36.3189 38.2366 35.683 38.5 35.02 38.5H30.02V43.5C30.02 44.163 29.7566 44.7989 29.2878 45.2678C28.8189 45.7366 28.183 46 27.52 46C26.857 46 26.2211 45.7366 25.7522 45.2678C25.2834 44.7989 25.02 44.163 25.02 43.5V38.5H20.02C19.357 38.5 18.7211 38.2366 18.2522 37.7678C17.7834 37.2989 17.52 36.663 17.52 36ZM54.995 43.5C54.995 44.8261 54.4682 46.0979 53.5305 47.0355C52.5929 47.9732 51.3211 48.5 49.995 48.5C48.6689 48.5 47.3972 47.9732 46.4595 47.0355C45.5218 46.0979 44.995 44.8261 44.995 43.5C44.995 42.1739 45.5218 40.9021 46.4595 39.9645C47.3972 39.0268 48.6689 38.5 49.995 38.5C51.3211 38.5 52.5929 39.0268 53.5305 39.9645C54.4682 40.9021 54.995 42.1739 54.995 43.5ZM54.995 33.5C56.3211 33.5 57.5929 32.9732 58.5305 32.0355C59.4682 31.0979 59.995 29.8261 59.995 28.5C59.995 27.1739 59.4682 25.9021 58.5305 24.9645C57.5929 24.0268 56.3211 23.5 54.995 23.5C53.6689 23.5 52.3972 24.0268 51.4595 24.9645C50.5218 25.9021 49.995 27.1739 49.995 28.5C49.995 29.8261 50.5218 31.0979 51.4595 32.0355C52.3972 32.9732 53.6689 33.5 54.995 33.5ZM5 36C5 30.0326 7.37053 24.3097 11.5901 20.0901C15.8097 15.8705 21.5326 13.5 27.5 13.5H52.54C58.5074 13.5 64.2303 15.8705 68.4499 20.0901C72.6695 24.3097 75.04 30.0326 75.04 36C75.04 41.9674 72.6695 47.6903 68.4499 51.9099C64.2303 56.1295 58.5074 58.5 52.54 58.5H27.5C21.5326 58.5 15.8097 56.1295 11.5901 51.9099C7.37053 47.6903 5 41.9674 5 36ZM27.5 18.5C22.8587 18.5 18.4075 20.3437 15.1256 23.6256C11.8437 26.9075 10 31.3587 10 36C10 40.6413 11.8437 45.0925 15.1256 48.3744C18.4075 51.6563 22.8587 53.5 27.5 53.5H52.54C57.1813 53.5 61.6325 51.6563 64.9144 48.3744C68.1963 45.0925 70.04 40.6413 70.04 36C70.04 31.3587 68.1963 26.9075 64.9144 23.6256C61.6325 20.3437 57.1813 18.5 52.54 18.5H27.5Z" fill="white"/>
</svg>
