<svg width="50" height="50" viewBox="0 0 50 50" fill="none" xmlns="http://www.w3.org/2000/svg">
<path d="M36.3516 38.0953L37.7578 36.6984C44.2641 36.9109 44.3641 36.6828 44.65 36.0141L46.4375 31.6625L46.5703 31.25L46.425 30.8891C46.3484 30.6984 46.1125 30.1297 42.05 26.2563V24.2188C46.7375 19.7031 46.6375 19.4719 46.3703 18.8109L44.5906 14.4141C44.3234 13.7547 44.2219 13.4969 37.7625 13.6734L36.3563 12.2203C36.5014 10.0798 36.4276 7.93015 36.1359 5.80469L35.9547 5.39375L31.3078 3.3625C30.6234 3.05 30.3828 2.9375 25.9953 7.71563L24.0234 7.68594C19.5063 2.86406 19.2922 2.95156 18.6156 3.225L14.2953 4.97188C13.6188 5.24531 13.3797 5.34219 13.6422 11.9047L12.2469 13.2953C5.74375 13.0828 5.64375 13.3141 5.36094 13.9797L3.57031 18.3328L3.42969 18.75L3.57656 19.1125C3.65313 19.3 3.87969 19.8625 7.95156 23.7406V25.7719C3.26406 30.2875 3.36563 30.5187 3.63438 31.1812L5.4125 35.5828C5.68438 36.2563 5.78125 36.4953 12.2391 36.3266L13.6453 37.7875C13.4996 39.9247 13.5713 42.0711 13.8594 44.1938L14.0406 44.6078L18.7172 46.6516C19.3969 46.9359 19.6328 47.0375 24.0078 42.2766L25.9797 42.3016C30.5031 47.1297 30.7344 47.0359 31.3953 46.7687L35.7062 45.0266C36.3875 44.7562 36.625 44.6609 36.3516 38.0953ZM17.8234 27.9016C17.2782 26.4766 17.166 24.9224 17.5008 23.434C17.8356 21.9455 18.6025 20.589 19.7054 19.5348C20.8082 18.4806 22.1978 17.7756 23.6999 17.5082C25.202 17.2408 26.7495 17.423 28.1484 18.0319C29.5473 18.6408 30.7352 19.6493 31.5631 20.9308C32.391 22.2123 32.8219 23.7098 32.8019 25.2353C32.7819 26.7608 32.3118 28.2465 31.4505 29.5058C30.5893 30.7652 29.3753 31.7421 27.9609 32.3141C26.0311 33.0687 23.881 33.0281 21.981 32.2011C20.0811 31.3742 18.5862 29.8282 17.8234 27.9016Z" fill="#99B8C4"/>
</svg>
